<svg width="53" height="53" viewBox="0 0 53 53" fill="none" xmlns="http://www.w3.org/2000/svg">
<path fill-rule="evenodd" clip-rule="evenodd" d="M0 26.215C0 40.67 11.76 52.431 26.216 52.431C40.671 52.431 52.431 40.67 52.431 26.215C52.431 11.76 40.671 0 26.216 0C11.76 0 0 11.76 0 26.215ZM1.896 26.215C1.896 12.805 12.806 1.895 26.216 1.895C39.626 1.895 50.536 12.805 50.536 26.215C50.536 39.626 39.626 50.536 26.216 50.536C12.806 50.536 1.896 39.626 1.896 26.215Z" fill="white"/>
<path d="M26.558 26.002C31.58 24.335 35.918 22.895 35.918 15.042V14.63V14.173V13H33.889V15.042C33.889 21.431 30.718 22.483 25.918 24.077C24.173 24.656 22.207 25.319 20.38 26.365V13H18.351V27.772C17.481 28.503 16.693 29.381 16.029 30.441V13H14V38.565V40.607H16.029V39.435V38.565C16.029 29.497 21.622 27.64 26.558 26.002Z" fill="white"/>
<path d="M37.89 13V13.266V14.173V14.63V15.042C37.89 24.15 32.285 26.011 27.338 27.652C22.327 29.315 18 30.751 18 38.565V39.435V40.607H20.03V38.565C20.03 32.216 23.191 31.167 27.977 29.578C29.73 28.996 31.704 28.331 33.538 27.277V40.607H35.568V25.867C36.439 25.133 37.227 24.252 37.89 23.189V40.607H39.919V15.042V13.266V13H37.89Z" fill="white"/>
</svg>
